<svg version="1.1" id="Layer_1" xmlns="http://www.w3.org/2000/svg" xmlns:xlink="http://www.w3.org/1999/xlink" x="0px" y="0px"
	 width="100%" viewBox="0 0 512 512" enable-background="new 0 0 512 512" xml:space="preserve">
<path fill="#FFFFFF" opacity="1.000000" stroke="none" 
	d="
M502.000000,0.999996 
	C505.665131,1.000000 509.330231,1.000000 512.996521,1.000000 
	C512.997681,171.593460 512.997681,342.186920 512.997681,513.000000 
	C349.975159,513.000000 186.950211,513.000000 23.587250,512.677979 
	C25.262241,510.954834 27.540020,509.819153 29.249514,508.113770 
	C70.264015,467.198578 111.223312,426.228027 152.176941,385.251831 
	C159.195358,378.229492 158.681702,368.483551 150.878983,361.636108 
	C143.078033,356.170929 135.693726,356.812805 129.299759,363.204956 
	C99.834465,392.661774 70.375473,422.124969 40.914158,451.585785 
	C29.365385,463.134430 17.780218,474.647003 6.282341,486.246124 
	C0.209170,492.372711 0.140952,501.707397 6.098358,508.375183 
	C8.167794,510.115906 10.083900,511.557953 12.000003,513.000000 
	C8.334882,513.000000 4.669764,513.000000 1.003484,513.000000 
	C1.002323,342.406952 1.002323,171.813904 1.002323,1.000000 
	C162.024841,1.000000 323.049774,1.000000 484.351685,1.378645 
	C473.218384,3.505280 461.665009,4.619778 450.433136,7.157301 
	C435.489563,10.533381 420.796387,15.017793 405.620178,19.053865 
	C371.812500,29.999958 340.394989,44.918457 311.651123,66.002548 
	C310.219666,66.014290 309.172699,65.834244 308.228302,66.068237 
	C291.367523,70.245758 274.528870,74.512589 257.665863,78.681007 
	C234.179672,84.486641 210.677231,90.226532 187.181839,95.994896 
	C168.105240,100.678398 148.959320,105.100830 129.977036,110.139633 
	C117.668732,113.406822 114.882904,128.612991 123.486954,137.011124 
	C126.586647,140.036636 129.631195,143.118927 132.686096,146.190033 
	C152.181259,165.788589 171.672287,185.391251 191.008835,205.322174 
	C183.645172,218.951355 178.265259,232.936844 174.690125,247.855957 
	C160.585678,253.783829 146.625732,259.122467 133.187531,265.551636 
	C122.133522,270.840149 120.908417,282.819672 127.545853,289.778351 
	C143.598572,306.608093 160.421967,322.702698 177.070969,339.398743 
	C192.165421,354.667267 207.046600,369.708801 222.114349,384.561035 
	C229.617538,391.956909 242.471588,389.312775 246.032684,381.434296 
	C252.646133,366.802734 258.708099,351.921906 265.412415,337.075165 
	C269.737030,336.033783 273.792358,335.439453 277.533325,334.017944 
	C287.764404,330.130341 297.863068,325.894257 308.315613,321.957214 
	C330.052063,343.555908 351.549286,364.931824 372.890747,386.462128 
	C381.180176,394.824921 395.592255,393.284302 399.380096,382.035858 
	C401.388855,376.070740 402.602142,369.834351 404.109283,363.704346 
	C411.508850,333.608215 418.874176,303.503693 426.276031,273.408112 
	C431.813110,250.894501 437.387299,228.390015 443.114197,205.591843 
	C455.164093,189.561005 465.977386,173.077591 474.199036,155.169876 
	C481.429718,139.420517 487.385834,123.085999 493.930359,106.612961 
	C497.301483,94.202995 501.262482,82.320198 503.838470,70.144371 
	C507.138000,54.548660 509.588715,38.754993 511.839386,22.965975 
	C512.602478,17.612543 513.012024,11.769213 508.969910,6.640484 
	C506.552551,4.552690 504.276276,2.776340 502.000000,0.999996 
M196.738312,407.306763 
	C190.018646,401.240723 181.314117,401.295319 174.654800,407.913391 
	C150.360657,432.057007 126.152092,456.287140 101.994682,480.567657 
	C95.939178,486.654022 96.523796,497.225891 103.292862,503.710632 
	C108.569473,508.889160 120.014648,507.554596 124.239883,503.296295 
	C148.849930,478.493713 173.600113,453.830139 198.316956,429.133636 
	C203.124283,424.330292 203.666565,412.476440 196.738312,407.306763 
M12.267642,412.662598 
	C15.797092,414.101746 19.214870,416.189240 22.883362,416.821106 
	C27.819094,417.671173 32.034576,415.504791 35.678608,411.837219 
	C59.230652,388.133087 82.917526,364.562958 106.515846,340.904663 
	C113.780190,333.621857 113.938911,324.255219 106.758347,317.318573 
	C100.682014,311.833435 91.434578,311.192566 86.087105,316.496704 
	C61.151478,341.230133 36.320202,366.069641 11.580248,390.998840 
	C6.108651,396.512299 6.545588,406.282104 12.267642,412.662598 
z"/>
<path fill="#FFBD37" opacity="1.000000" stroke="none" 
	d="
M151.029388,361.964661 
	C158.681702,368.483551 159.195358,378.229492 152.176941,385.251831 
	C111.223312,426.228027 70.264015,467.198578 29.249514,508.113770 
	C27.540020,509.819153 25.262241,510.954834 23.124611,512.677979 
	C19.638712,513.000000 16.277426,513.000000 12.458072,513.000000 
	C10.083900,511.557953 8.167794,510.115906 6.252067,508.072571 
	C7.631517,506.028137 8.982749,504.557220 10.393689,503.145966 
	C55.957325,457.571808 101.529091,412.005798 147.084015,366.422943 
	C148.484207,365.021881 149.718018,363.454498 151.029388,361.964661 
z"/>
<path fill="#FE6A16" opacity="1.000000" stroke="none" 
	d="
M405.995636,19.026058 
	C420.796387,15.017793 435.489563,10.533381 450.433136,7.157301 
	C461.665009,4.619778 473.218384,3.505280 484.814331,1.378645 
	C490.354919,1.000000 495.709869,1.000000 501.532410,0.999996 
	C504.276276,2.776340 506.552551,4.552690 508.618896,6.681802 
	C506.996155,8.144181 505.455383,9.125177 504.190216,10.383352 
	C492.068634,22.438324 479.967285,34.513931 467.916748,46.639912 
	C462.193848,52.398655 456.593414,58.279079 450.624390,63.980263 
	C441.502106,55.079681 432.651062,46.344711 423.898163,37.512501 
	C417.860382,31.419994 411.958344,25.192961 405.995636,19.026058 
z"/>
<path fill="#DBEEFE" opacity="1.000000" stroke="none" 
	d="
M405.620178,19.053865 
	C411.958344,25.192961 417.860382,31.419994 423.898163,37.512501 
	C432.651062,46.344711 441.502106,55.079681 450.657776,64.193222 
	C451.004333,64.530304 451.091614,64.952225 450.782410,65.092239 
	C427.419708,88.211716 404.370941,111.195961 381.300964,134.158936 
	C379.900146,135.553268 378.331238,136.778732 376.527405,137.969513 
	C375.333252,137.093781 374.451660,136.331955 373.571320,135.568756 
	C355.337067,119.761002 329.521973,117.132996 308.916840,128.987122 
	C287.894257,141.081406 277.292328,164.575317 281.831299,188.515900 
	C283.982086,199.860077 289.865082,209.124619 296.995087,218.034607 
	C289.364807,225.928268 282.006805,233.628586 274.371063,241.042862 
	C266.639923,248.549774 258.634064,255.773758 250.457840,262.971985 
	C230.780685,243.490097 211.394241,224.157913 192.139420,204.465637 
	C194.972641,199.518295 197.526245,194.836060 200.399078,190.358643 
	C225.213089,151.685089 255.970657,118.036255 288.899475,86.272064 
	C296.278442,79.154091 304.337433,72.741051 312.083344,66.003479 
	C340.394989,44.918457 371.812500,29.999958 405.620178,19.053865 
z"/>
<path fill="#BFE1FF" opacity="1.000000" stroke="none" 
	d="
M376.840546,138.082764 
	C378.331238,136.778732 379.900146,135.553268 381.300964,134.158936 
	C404.370941,111.195961 427.419708,88.211716 451.092712,65.214203 
	C465.776398,79.134071 479.840637,93.071999 493.904846,107.009918 
	C487.385834,123.085999 481.429718,139.420517 474.199036,155.169876 
	C465.977386,173.077591 455.164093,189.561005 442.779114,205.664337 
	C438.621429,210.335220 435.188507,214.855957 431.280426,218.919800 
	C394.082855,257.599854 355.044067,294.076355 307.854431,320.757629 
	C288.697113,301.705414 269.778473,282.888153 250.846756,263.831848 
	C250.833679,263.592834 250.748566,263.121674 250.748566,263.121674 
	C258.634064,255.773758 266.639923,248.549774 274.371063,241.042862 
	C282.006805,233.628586 289.364807,225.928268 297.211609,218.083450 
	C297.578613,217.813477 298.017578,217.881897 298.195496,218.170563 
	C313.331787,231.853394 330.728027,236.709305 350.164520,231.819550 
	C370.824646,226.621979 384.685211,213.269516 390.459534,192.839752 
	C396.156219,172.684631 391.612396,154.395630 376.974396,138.740021 
	C376.936707,138.519577 376.840546,138.082764 376.840546,138.082764 
z"/>
<path fill="#FE6A16" opacity="1.000000" stroke="none" 
	d="
M311.651123,66.002556 
	C304.337433,72.741051 296.278442,79.154091 288.899475,86.272064 
	C255.970657,118.036255 225.213089,151.685089 200.399078,190.358643 
	C197.526245,194.836060 194.972641,199.518295 192.003632,204.514709 
	C191.549942,204.982147 191.359436,205.005051 191.164673,204.992569 
	C171.672287,185.391251 152.181259,165.788589 132.686096,146.190033 
	C129.631195,143.118927 126.586647,140.036636 123.486954,137.011124 
	C114.882904,128.612991 117.668732,113.406822 129.977036,110.139633 
	C148.959320,105.100830 168.105240,100.678398 187.181839,95.994896 
	C210.677231,90.226532 234.179672,84.486641 257.665863,78.681007 
	C274.528870,74.512589 291.367523,70.245758 308.228302,66.068237 
	C309.172699,65.834244 310.219666,66.014290 311.651123,66.002556 
z"/>
<path fill="#FF432E" opacity="1.000000" stroke="none" 
	d="
M308.093140,320.992584 
	C355.044067,294.076355 394.082855,257.599854 431.280426,218.919800 
	C435.188507,214.855957 438.621429,210.335220 442.609894,205.953979 
	C437.387299,228.390015 431.813110,250.894501 426.276031,273.408112 
	C418.874176,303.503693 411.508850,333.608215 404.109283,363.704346 
	C402.602142,369.834351 401.388855,376.070740 399.380096,382.035858 
	C395.592255,393.284302 381.180176,394.824921 372.890747,386.462128 
	C351.549286,364.931824 330.052063,343.555908 308.315125,321.754333 
	C308.013184,321.390411 308.093140,320.992584 308.093140,320.992584 
z"/>
<path fill="#FE6A16" opacity="1.000000" stroke="none" 
	d="
M176.934692,339.093658 
	C160.421967,322.702698 143.598572,306.608093 127.545853,289.778351 
	C120.908417,282.819672 122.133522,270.840149 133.187531,265.551636 
	C146.625732,259.122467 160.585678,253.783829 174.997757,248.008591 
	C190.825714,263.062103 205.975815,278.080444 221.129395,293.303375 
	C221.132858,293.507965 221.187012,293.913605 220.875107,294.061279 
	C206.650238,308.043976 192.723587,321.865326 178.856552,335.746155 
	C177.978638,336.624939 177.564560,337.967102 176.934692,339.093658 
z"/>
<path fill="#FF442E" opacity="1.000000" stroke="none" 
	d="
M177.070984,339.398743 
	C177.564560,337.967102 177.978638,336.624939 178.856552,335.746155 
	C192.723587,321.865326 206.650238,308.043976 221.166245,294.214905 
	C236.179428,308.528839 250.589554,322.836884 264.999695,337.144897 
	C258.708099,351.921906 252.646133,366.802734 246.032684,381.434296 
	C242.471588,389.312775 229.617538,391.956909 222.114349,384.561035 
	C207.046600,369.708801 192.165421,354.667267 177.070984,339.398743 
z"/>
<path fill="#29498F" opacity="1.000000" stroke="none" 
	d="
M221.125931,293.098785 
	C205.975815,278.080444 190.825714,263.062103 175.367966,247.891113 
	C178.265259,232.936844 183.645172,218.951355 191.008835,205.322174 
	C191.359436,205.005051 191.549942,204.982147 191.872009,204.874786 
	C211.394241,224.157913 230.780685,243.490097 250.457855,262.971985 
	C250.748566,263.121674 250.833679,263.592834 250.572876,263.999451 
	C240.583359,273.970276 230.854645,283.534515 221.125931,293.098785 
z"/>
<path fill="#14274E" opacity="1.000000" stroke="none" 
	d="
M221.129395,293.303375 
	C230.854645,283.534515 240.583359,273.970276 250.585953,264.238464 
	C269.778473,282.888153 288.697113,301.705414 307.854431,320.757629 
	C308.093140,320.992584 308.013184,321.390411 308.013672,321.593262 
	C297.863068,325.894257 287.764404,330.130341 277.533325,334.017944 
	C273.792358,335.439453 269.737030,336.033783 265.412415,337.075165 
	C250.589554,322.836884 236.179428,308.528839 221.478149,294.067200 
	C221.187012,293.913605 221.132858,293.507965 221.129395,293.303375 
z"/>
<path fill="#FFE45C" opacity="1.000000" stroke="none" 
	d="
M150.878983,361.636108 
	C149.718018,363.454498 148.484207,365.021881 147.084015,366.422943 
	C101.529091,412.005798 55.957325,457.571808 10.393689,503.145966 
	C8.982749,504.557220 7.631517,506.028137 6.098737,507.773865 
	C0.140952,501.707397 0.209170,492.372711 6.282341,486.246124 
	C17.780218,474.647003 29.365385,463.134430 40.914158,451.585785 
	C70.375473,422.124969 99.834465,392.661774 129.299759,363.204956 
	C135.693726,356.812805 143.078033,356.170929 150.878983,361.636108 
z"/>
<path fill="#FF442E" opacity="1.000000" stroke="none" 
	d="
M493.930389,106.612961 
	C479.840637,93.071999 465.776398,79.134071 451.401886,65.074188 
	C451.091614,64.952225 451.004333,64.530304 450.970917,64.317345 
	C456.593414,58.279079 462.193848,52.398655 467.916748,46.639912 
	C479.967285,34.513931 492.068634,22.438324 504.190216,10.383352 
	C505.455383,9.125177 506.996155,8.144181 508.760010,6.993248 
	C513.012024,11.769213 512.602478,17.612543 511.839386,22.965975 
	C509.588715,38.754993 507.138000,54.548660 503.838470,70.144371 
	C501.262482,82.320198 497.301483,94.202995 493.930389,106.612961 
z"/>
<path fill="#FFBE38" opacity="1.000000" stroke="none" 
	d="
M107.075989,317.947479 
	C113.938911,324.255219 113.780190,333.621857 106.515846,340.904663 
	C82.917526,364.562958 59.230652,388.133087 35.678608,411.837219 
	C32.034576,415.504791 27.819094,417.671173 22.883362,416.821106 
	C19.214870,416.189240 15.797092,414.101746 12.426424,412.207520 
	C42.599010,381.803253 72.609566,351.850830 102.636841,321.915222 
	C104.040253,320.516083 105.592865,319.266632 107.075989,317.947479 
z"/>
<path fill="#FFE35B" opacity="1.000000" stroke="none" 
	d="
M102.924500,503.100952 
	C96.523796,497.225891 95.939178,486.654022 101.994682,480.567657 
	C126.152092,456.287140 150.360657,432.057007 174.654800,407.913391 
	C181.314117,401.295319 190.018646,401.240723 196.737976,407.927795 
	C166.771927,438.573608 136.802490,468.594696 106.852257,498.634888 
	C105.455269,500.036102 104.229828,501.608368 102.924500,503.100952 
z"/>
<path fill="#FFE45C" opacity="1.000000" stroke="none" 
	d="
M106.917168,317.633026 
	C105.592865,319.266632 104.040253,320.516083 102.636841,321.915222 
	C72.609566,351.850830 42.599010,381.803253 12.279190,411.891052 
	C6.545588,406.282104 6.108651,396.512299 11.580248,390.998840 
	C36.320202,366.069641 61.151478,341.230133 86.087105,316.496704 
	C91.434578,311.192566 100.682014,311.833435 106.917168,317.633026 
z"/>
<path fill="#FFBD37" opacity="1.000000" stroke="none" 
	d="
M103.108681,503.405792 
	C104.229828,501.608368 105.455269,500.036102 106.852257,498.634888 
	C136.802490,468.594696 166.771927,438.573608 196.885315,408.245972 
	C203.666565,412.476440 203.124283,424.330292 198.316956,429.133636 
	C173.600113,453.830139 148.849930,478.493713 124.239883,503.296295 
	C120.014648,507.554596 108.569473,508.889160 103.108681,503.405792 
z"/>
<path fill="#284990" opacity="1.000000" stroke="none" 
	d="
M298.017578,217.881897 
	C298.017578,217.881897 297.578613,217.813477 297.362061,217.764618 
	C289.865082,209.124619 283.982086,199.860077 281.831299,188.515900 
	C277.292328,164.575317 287.894257,141.081406 308.916840,128.987122 
	C329.521973,117.132996 355.337067,119.761002 373.571320,135.568756 
	C374.451660,136.331955 375.333252,137.093781 376.527405,137.969513 
	C376.840546,138.082764 376.936707,138.519577 376.633728,138.795456 
	C371.440857,143.688339 366.597839,148.356461 361.640686,152.900131 
	C359.268524,155.074448 356.680115,157.012909 353.838989,158.974930 
	C352.437622,158.082733 351.439423,157.192047 350.327972,156.477524 
	C339.543945,149.544815 325.104553,151.845749 317.192200,161.729034 
	C309.042725,171.908554 309.809875,185.897446 319.068329,195.216919 
	C319.119476,195.426483 319.187134,195.852585 318.891418,196.033890 
	C314.023041,200.712769 309.368347,205.131058 304.909973,209.739258 
	C302.442841,212.289307 300.304260,215.157242 298.017578,217.881897 
z"/>
<path fill="#13274E" opacity="1.000000" stroke="none" 
	d="
M354.189636,159.058167 
	C356.680115,157.012909 359.268524,155.074448 361.640686,152.900131 
	C366.597839,148.356461 371.440857,143.688339 376.671417,139.015900 
	C391.612396,154.395630 396.156219,172.684631 390.459534,192.839752 
	C384.685211,213.269516 370.824646,226.621979 350.164520,231.819550 
	C330.728027,236.709305 313.331787,231.853394 298.195496,218.170563 
	C300.304260,215.157242 302.442841,212.289307 304.909973,209.739258 
	C309.368347,205.131058 314.023041,200.712769 319.199677,196.174927 
	C320.844269,196.961868 321.828125,197.875412 322.934326,198.602951 
	C333.808441,205.754517 348.304352,203.263306 356.484528,192.867050 
	C364.192444,183.070999 363.401062,168.825470 354.645111,160.443268 
	C354.457123,159.788864 354.323364,159.423523 354.189636,159.058167 
z"/>
<path fill="#FDFEFE" opacity="1.000000" stroke="none" 
	d="
M353.838989,158.974915 
	C354.323364,159.423523 354.457123,159.788864 354.275452,160.552780 
	C352.359894,162.388214 350.701111,163.765427 349.169128,165.271606 
	C339.103210,175.167999 329.064667,185.092209 319.017181,195.007339 
	C309.809875,185.897446 309.042725,171.908554 317.192200,161.729034 
	C325.104553,151.845749 339.543945,149.544815 350.327972,156.477524 
	C351.439423,157.192047 352.437622,158.082733 353.838989,158.974915 
z"/>
<path fill="#D7EAFB" opacity="1.000000" stroke="none" 
	d="
M319.068329,195.216919 
	C329.064667,185.092209 339.103210,175.167999 349.169128,165.271606 
	C350.701111,163.765427 352.359894,162.388214 354.329651,160.841843 
	C363.401062,168.825470 364.192444,183.070999 356.484528,192.867050 
	C348.304352,203.263306 333.808441,205.754517 322.934326,198.602951 
	C321.828125,197.875412 320.844269,196.961868 319.495361,195.993622 
	C319.187134,195.852585 319.119476,195.426483 319.068329,195.216919 
z"/>
</svg>